<svg width="274" height="276" viewBox="0 0 274 276" fill="none" xmlns="http://www.w3.org/2000/svg">
<path d="M246.375 146H223.562V136.875H237.25C238.003 136.875 238.744 136.689 239.408 136.333C240.071 135.977 240.636 135.462 241.052 134.834C247.199 125.576 251.969 115.474 255.213 104.845C257.069 98.682 258.397 92.3724 259.184 85.9843C262.507 82.7165 264.451 78.2988 264.614 73.641C264.777 68.9833 263.148 64.4402 260.062 60.9476V59.3125C260.062 43.5818 253.814 28.4955 242.69 17.3722C231.567 6.24898 216.481 0 200.75 0C185.019 0 169.933 6.24898 158.81 17.3722C147.686 28.4955 141.438 43.5818 141.438 59.3125V100.375C141.438 101.585 141.918 102.746 142.774 103.601C143.629 104.457 144.79 104.938 146 104.938C146.143 104.938 146.285 104.931 146.431 104.917C147.857 104.782 149.285 104.6 150.714 104.373C152.672 110.955 155.231 117.344 158.356 123.458C154.994 120.348 150.581 118.622 146 118.625H18.25C13.4115 118.63 8.77266 120.555 5.3513 123.976C1.92994 127.398 0.00543418 132.036 0 136.875V219C0.00543418 223.839 1.92994 228.477 5.3513 231.899C8.77266 235.32 13.4115 237.245 18.25 237.25H48.9066L41.1988 268.081C41.0307 268.754 41.018 269.456 41.1619 270.134C41.3057 270.812 41.6023 271.449 42.0289 271.995C42.4556 272.542 43.0013 272.984 43.6244 273.288C44.2475 273.592 44.9317 273.75 45.625 273.75H118.625C119.835 273.75 120.996 273.269 121.851 272.414C122.707 271.558 123.188 270.398 123.188 269.188V250.938C123.188 249.727 122.707 248.567 121.851 247.711C120.996 246.856 119.835 246.375 118.625 246.375H117.419L119.29 237.25H142.852L132.498 272.463L141.252 275.037L150.954 242.044C152.031 244.144 153.298 246.141 154.738 248.011L155.125 273.818L164.25 273.682L163.839 246.307C163.823 245.258 163.447 244.247 162.774 243.444C160.281 240.49 158.397 237.073 157.231 233.388C159.424 231.687 161.198 229.506 162.415 227.011C163.632 224.516 164.26 221.776 164.25 219V155.125H169.934L173.094 166.186C174.802 172.203 178.427 177.5 183.418 181.271C188.409 185.042 194.494 187.083 200.75 187.083C207.005 187.083 213.09 185.042 218.081 181.271C223.072 177.5 226.697 172.203 228.406 166.186L231.566 155.122H237.25V200.747C237.25 201.821 237.63 202.862 238.322 203.684C241.998 208.029 244.393 213.311 245.239 218.939C246.085 224.567 245.349 230.32 243.112 235.553L228.961 237.126L217.54 231.415L225.931 218.469C226.923 216.96 227.598 215.265 227.916 213.487C228.233 211.709 228.187 209.886 227.779 208.126C227.362 206.33 226.584 204.637 225.494 203.15C224.403 201.664 223.022 200.414 221.434 199.476C218.282 197.605 214.533 197.013 210.959 197.822C207.384 198.632 204.255 200.781 202.217 203.827L169.55 254.106C169.213 254.625 168.985 255.207 168.88 255.816C168.775 256.426 168.795 257.051 168.939 257.652L171.95 270.245C172.227 271.41 172.952 272.419 173.967 273.054C174.983 273.689 176.208 273.899 177.377 273.638L183.68 272.238C184.106 272.713 184.627 273.093 185.21 273.354C185.793 273.615 186.424 273.75 187.062 273.75H250.938C256.986 273.743 262.784 271.338 267.061 267.061C271.338 262.784 273.743 256.986 273.75 250.938V173.375C273.742 166.117 270.855 159.159 265.723 154.027C260.591 148.895 253.633 146.008 246.375 146V146ZM177.938 127.75H171.291C168.013 122.579 165.197 117.13 162.873 111.465C166.718 117.399 171.871 122.372 177.938 126.003V127.75ZM184.577 119.262C176.585 115.091 170.361 108.185 167.039 99.8047C177.111 95.6704 186.151 89.3719 193.517 81.3554C200.884 73.3389 206.398 63.8006 209.668 53.416L214.715 37.2397C219.378 47.7082 227.277 56.4045 237.25 62.05V86.6875C237.247 91.6852 236.218 96.6291 234.227 101.213C232.236 105.797 229.325 109.924 225.675 113.338C222.025 116.751 217.713 119.38 213.006 121.06C208.299 122.74 203.298 123.437 198.311 123.106C193.517 122.786 188.84 121.477 184.577 119.262V119.262ZM255.5 73C255.497 75.4192 254.535 77.7385 252.824 79.4492C251.114 81.1598 248.794 82.1221 246.375 82.125V63.875C248.794 63.8779 251.114 64.8402 252.824 66.5508C254.535 68.2615 255.497 70.5808 255.5 73V73ZM246.482 102.193C243.734 111.196 239.794 119.791 234.768 127.75H223.562V126.186C229.845 122.591 235.174 117.543 239.104 111.465C243.033 105.386 245.449 98.4543 246.147 91.25H246.375C247.314 91.25 248.251 91.178 249.179 91.0344C248.488 94.8011 247.588 98.5263 246.482 102.193V102.193ZM150.562 59.3125C150.545 46.3408 155.551 33.8661 164.531 24.5052C173.511 15.1444 185.767 9.62473 198.728 9.10406C211.69 8.5834 224.349 13.1022 234.051 21.7126C243.753 30.323 249.744 42.3559 250.766 55.2872C249.33 54.9307 247.855 54.7503 246.375 54.75H242.945C232.762 49.4062 225.056 40.3131 221.455 29.3922L218.763 21.3622C218.457 20.4478 217.868 19.654 217.083 19.0949C216.297 18.5358 215.354 18.24 214.389 18.2502C213.425 18.2603 212.489 18.5758 211.715 19.1513C210.941 19.7268 210.369 20.5328 210.082 21.4534L200.957 50.6968C197.422 62.0046 190.856 72.1273 181.971 79.9644C173.086 87.8015 162.223 93.0532 150.562 95.1487V59.3125ZM51.4684 264.625L67.4372 200.75H95.2068L87.2225 264.625H51.4684ZM114.062 264.625H96.4182L97.5588 255.5H114.062V264.625ZM108.105 246.375H98.6994L99.84 237.25H109.976L108.105 246.375ZM155.125 219C155.126 220.723 154.639 222.411 153.721 223.869C152.802 225.327 151.49 226.495 149.935 227.238C149.333 227.524 148.7 227.737 148.047 227.873C147.377 228.035 146.69 228.119 146 228.125H100.981L104.902 196.753C104.982 196.111 104.925 195.46 104.734 194.842C104.543 194.223 104.223 193.653 103.795 193.168C103.367 192.683 102.841 192.295 102.251 192.029C101.661 191.763 101.022 191.625 100.375 191.625H63.875C62.8575 191.625 61.8692 191.965 61.0672 192.591C60.2652 193.218 59.6956 194.094 59.4488 195.081L51.1878 228.125H18.25C15.8308 228.122 13.5115 227.16 11.8008 225.449C10.0902 223.739 9.12787 221.419 9.125 219V136.875C9.12787 134.456 10.0902 132.136 11.8008 130.426C13.5115 128.715 15.8308 127.753 18.25 127.75H146C148.419 127.753 150.739 128.715 152.449 130.426C154.16 132.136 155.122 134.456 155.125 136.875V219ZM164.25 146V136.875C164.25 135.584 164.112 134.297 163.84 133.035C164.226 133.639 164.616 134.241 165.014 134.84C165.43 135.466 165.995 135.979 166.658 136.334C167.32 136.689 168.061 136.875 168.812 136.875H177.938V146H164.25ZM219.627 163.701C218.47 167.802 216.002 171.411 212.602 173.978C210.053 175.899 207.076 177.171 203.926 177.683C200.777 178.196 197.55 177.934 194.524 176.92C191.498 175.906 188.765 174.171 186.56 171.864C184.355 169.557 182.745 166.748 181.869 163.68L179.388 154.997C181.526 154.652 183.472 153.557 184.878 151.909C186.284 150.261 187.058 148.166 187.062 146V130.152C190.512 131.28 194.089 131.972 197.711 132.211C198.732 132.279 199.752 132.312 200.77 132.312C205.406 132.315 210.015 131.608 214.438 130.218V146C214.441 148.167 215.215 150.261 216.621 151.91C218.027 153.558 219.973 154.653 222.112 154.998L219.627 163.701ZM246.375 199.141V155.125C251.214 155.13 255.852 157.055 259.274 160.476C262.695 163.898 264.62 168.536 264.625 173.375V233.167L253.168 234.439C254.888 228.436 255.17 222.111 253.989 215.979C252.809 209.846 250.201 204.078 246.375 199.141V199.141ZM209.869 208.8C210.606 207.72 211.729 206.964 213.006 206.686C214.283 206.408 215.618 206.629 216.738 207.305C217.271 207.614 217.737 208.028 218.106 208.522C218.476 209.016 218.741 209.58 218.886 210.18C219.014 210.747 219.026 211.334 218.921 211.906C218.816 212.478 218.596 213.023 218.274 213.507L208.706 228.268L195.505 230.909L209.869 208.8ZM178.268 257.439L182.5 250.925V263.155L179.779 263.759L178.268 257.439ZM250.938 264.625H191.625V240.991L209.235 237.468L226.084 245.893C226.871 246.287 227.754 246.445 228.629 246.349L264.625 242.347V250.938C264.621 254.566 263.178 258.046 260.612 260.612C258.046 263.178 254.566 264.621 250.938 264.625V264.625Z" fill="#5E3BE1"/>
<path d="M214.438 91.25H205.312C205.312 92.4601 204.832 93.6205 203.976 94.4762C203.121 95.3318 201.96 95.8125 200.75 95.8125C199.54 95.8125 198.379 95.3318 197.524 94.4762C196.668 93.6205 196.188 92.4601 196.188 91.25H187.062C187.062 94.8802 188.505 98.3616 191.071 100.929C193.638 103.495 197.12 104.937 200.75 104.938C204.38 104.937 207.862 103.495 210.429 100.929C212.995 98.3616 214.438 94.8802 214.438 91.25Z" fill="#5E3BE1"/>
<path d="M221.281 77.5625C222.635 77.5625 223.958 77.1611 225.083 76.4091C226.209 75.6571 227.086 74.5883 227.604 73.3377C228.122 72.0872 228.258 70.7112 227.993 69.3836C227.729 68.056 227.078 66.8366 226.121 65.8795C225.163 64.9224 223.944 64.2706 222.616 64.0065C221.289 63.7424 219.913 63.878 218.662 64.396C217.412 64.9139 216.343 65.7911 215.591 66.9166C214.839 68.042 214.438 69.3652 214.438 70.7188C214.439 72.5332 215.161 74.2728 216.444 75.5558C217.727 76.8389 219.467 77.5605 221.281 77.5625Z" fill="#5E3BE1"/>
<path d="M18.25 136.875H36.5V146H18.25V136.875Z" fill="#5E3BE1"/>
<path d="M45.625 136.875H63.875V146H45.625V136.875Z" fill="#5E3BE1"/>
<path d="M73 136.875H91.25V146H73V136.875Z" fill="#5E3BE1"/>
<path d="M100.375 136.875H118.625V146H100.375V136.875Z" fill="#5E3BE1"/>
<path d="M127.75 136.875H146V146H127.75V136.875Z" fill="#5E3BE1"/>
</svg>
